<svg xmlns="http://www.w3.org/2000/svg" viewBox="0 0 70.866 85.179"><defs><style>.cls-1{fill:#f47925;}</style></defs><g id="Layer_2" data-name="Layer 2"><g id="Layer_1-2" data-name="Layer 1"><polygon class="cls-1" points="61.332 44.284 61.332 45.431 63.535 45.431 63.535 46.487 61.332 46.487 61.332 48.52 59.987 48.52 59.987 43.225 64.147 43.225 64.147 44.284 61.332 44.284"/><polygon class="cls-1" points="69.559 48.52 69.559 44.993 68.324 48.52 67.299 48.52 66.01 44.988 66.01 48.52 64.791 48.52 64.791 43.225 66.689 43.225 67.858 46.281 68.899 43.225 70.866 43.225 70.866 48.52 69.559 48.52"/><polygon class="cls-1" points="19.121 64.76 19.121 55.093 15.744 64.76 12.935 64.76 9.387 55.072 9.387 64.76 6.057 64.76 6.057 50.248 11.258 50.248 14.465 58.617 17.318 50.248 22.708 50.248 22.708 64.76 19.121 64.76"/><polygon class="cls-1" points="24.352 64.76 24.352 50.248 35.763 50.248 35.763 53.141 28.043 53.141 28.043 55.974 34.082 55.974 34.082 58.89 28.043 58.89 28.043 61.868 35.763 61.868 35.763 64.76 24.352 64.76"/><path class="cls-1" d="M49.316,64.842H42c-3.19,0-4.594-1.423-4.594-4.528v-5.6c0-2.79,1.11-4.553,4.447-4.553H49.3l.192.191v2.706H42.608c-1.073,0-1.531.608-1.531,1.611v5.854c0,1.006.628,1.448,1.694,1.448h3.361V57.526h3.357v7.152Z"/><path class="cls-1" d="M59.853,54.65c0-1.444-1.632-1.782-2.661-1.782-1.048,0-2.623.4-2.623,1.8v4.135h5.284Zm0,10.11v-3.1H54.569v3.1H51.133V54.947c0-3.88,2.828-4.951,6.206-4.951,3.334,0,6.186,1.237,6.186,4.845V64.76Z"/><polygon class="cls-1" points="22.154 46.862 0 3.69 24.545 26.06 34.156 6.781 47.565 27.365 69.503 0 51.896 43.261 22.154 46.862"/><path class="cls-1" d="M48.192,79.388l-4.684.265-.1-.1-.048-.875,4.557-.255a.912.912,0,0,0,.915-1.108l-.053-.975c-.042-.736-.41-.944-1.04-.906l-2.724.153c-1.268.074-1.937-.513-2-1.551L42.942,72.6a1.76,1.76,0,0,1,1.913-1.911l4.382-.248.106.095.052.874-4.206.236c-.9.054-1.062.573-1.034,1.054l.064,1.1c.042.786.779.757,1.206.734l2.764-.158a1.535,1.535,0,0,1,1.78,1.539l.082,1.506a1.749,1.749,0,0,1-1.859,1.973m-9.083.461-1.189.07-.439-7.776-3.217.182-.059-.993,7.626-.425.056.986-3.219.184Zm-6.776.387-.495-8.765,1.2-.068.5,8.763Zm-2.975.169-.222-3.914-4.786.27.22,3.914-1.2.069-.5-8.767,1.2-.066.215,3.81,4.789-.271-.214-3.809,1.2-.07.5,8.764Zm-12.8-10.977,4.323,15.751,32.268-4.633,1.5-12.1Z"/></g></g></svg>