<?xml version="1.0" encoding="UTF-8"?> <svg xmlns="http://www.w3.org/2000/svg" xmlns:xlink="http://www.w3.org/1999/xlink" version="1.1" id="Layer_1" x="0px" y="0px" viewBox="0 0 180 180" style="enable-background:new 0 0 180 180;" xml:space="preserve"> <style type="text/css"> .st0{fill:#2D2C7C;} .st1{fill:#E21E26;} .st2{fill:#FFFFFF;} </style> <g> <polygon class="st0" points="21.2,30 21.2,33.1 33,33.1 33,145.7 21.2,145.7 21.2,148.6 36.1,148.6 70.5,148.6 70.5,145.5 59.1,145.5 58.9,30 "></polygon> <g> <path class="st0" d="M86.5,48.5h-3.6V34h-7.2v14.4H72V30.8h14.5V48.5z"></path> <path class="st0" d="M97.5,30.8c1.9,0,3.4,0.5,4.6,1.6c1.2,1.1,1.8,2.4,1.8,4.1s-0.6,3.1-1.8,4.1c-1.2,1.1-2.7,1.6-4.6,1.6h-3v6.2 h-3.6V30.8H97.5L97.5,30.8z M94.4,34v5.1h3c0.8,0,1.5-0.2,2-0.7s0.7-1.1,0.7-1.9s-0.2-1.4-0.7-1.8c-0.5-0.5-1.2-0.7-2-0.7H94.4z"></path> <path class="st0" d="M124.5,39.2c0,2.4-1,4.4-3.1,6h2.9v3.3h-7.6v-3.3c2.8-1.3,4.2-3.3,4.2-5.9c0-1.6-0.5-3-1.6-4 s-2.4-1.5-4.1-1.5c-1.6,0-3,0.5-4,1.5s-1.6,2.3-1.6,4c0,2.6,1.4,4.6,4.2,5.9v3.3h-7.6v-3.3h2.7c-2-1.6-3-3.6-3-6 c0-2.4,0.9-4.5,2.7-6.2c1.8-1.7,4-2.5,6.6-2.5s4.8,0.8,6.7,2.5C123.5,34.6,124.5,36.7,124.5,39.2z"></path> <path class="st0" d="M139.9,34h-5.7v14.4h-3.6V34H125v-3.2h15V34H139.9z"></path> <path class="st0" d="M149.4,30.4c2.6,0,4.8,0.9,6.7,2.7c1.8,1.8,2.8,4,2.8,6.5s-0.9,4.8-2.8,6.5c-1.9,1.8-4.1,2.7-6.7,2.7 c-2.6,0-4.8-0.9-6.6-2.7c-1.8-1.8-2.7-3.9-2.7-6.5c0-2.6,0.9-4.8,2.7-6.5C144.5,31.3,146.7,30.4,149.4,30.4z M149.3,33.8 c-1.6,0-3,0.5-4.1,1.6c-1.1,1.1-1.6,2.5-1.6,4.2c0,1.7,0.5,3.1,1.6,4.2c1.1,1.1,2.4,1.6,4.1,1.6c1.6,0,3-0.5,4.1-1.6 c1.1-1.1,1.6-2.5,1.6-4.2c0-1.7-0.5-3.1-1.6-4.2C152.4,34.3,151,33.8,149.3,33.8L149.3,33.8z"></path> <path class="st0" d="M79.2,63.1c-0.6,0-1-0.2-1.4-0.6c-0.3-0.4-0.5-0.9-0.5-1.6v-5h-4V63H72v-8.3h6.7v6.1c0,0.7,0.3,1.1,0.9,1.1 c0.1,0,0.3,0,0.5-0.1V63C79.7,63.1,79.4,63.1,79.2,63.1L79.2,63.1z"></path> <path class="st0" d="M85.4,54.5c1.3,0,2.3,0.4,3.1,1.2c0.8,0.8,1.2,1.8,1.2,3.1c0,1.2-0.4,2.2-1.2,3.1c-0.8,0.8-1.7,1.2-2.9,1.2 c-0.6,0-1.2-0.1-1.7-0.4c-0.5-0.2-1-0.6-1.3-1V66h-1.3v-7.2c0-1.3,0.4-2.4,1.1-3.2C83.1,54.9,84.1,54.5,85.4,54.5L85.4,54.5z M85.4,62c0.8,0,1.5-0.3,2.1-0.9c0.5-0.6,0.8-1.3,0.8-2.2s-0.3-1.6-0.8-2.2c-0.5-0.6-1.2-0.9-2.1-0.9c-0.8,0-1.5,0.3-2,0.8 s-0.8,1.3-0.8,2.3s0.3,1.8,0.8,2.3C83.9,61.7,84.6,62,85.4,62L85.4,62z"></path> <path class="st0" d="M95.5,54.6c1.2,0,2.2,0.4,3.1,1.3c0.8,0.8,1.3,1.9,1.3,3.1s-0.4,2.2-1.3,3.1c-0.8,0.8-1.9,1.2-3.1,1.2 s-2.2-0.4-3.1-1.3c-0.8-0.8-1.3-1.9-1.3-3.1c0-1.2,0.4-2.3,1.3-3.1S94.3,54.5,95.5,54.6L95.5,54.6z M95.5,55.8 c-0.8,0-1.6,0.3-2.1,0.9c-0.6,0.6-0.9,1.3-0.9,2.2c0,0.9,0.3,1.6,0.9,2.2c0.6,0.6,1.3,0.9,2.1,0.9c0.9,0,1.6-0.3,2.2-0.9 c0.6-0.6,0.9-1.3,0.9-2.2s-0.3-1.6-0.9-2.2C97.1,56.1,96.3,55.8,95.5,55.8L95.5,55.8z M96.4,50l-0.6,3.4h-1v-3.6h1.6V50z"></path> <path class="st0" d="M104.7,62.3V66h-1.3v-3.8l-3.5-7.6h1.4l2.8,6.2l2.7-6.2h1.4L104.7,62.3z"></path> <path class="st0" d="M113.3,54.5c1.3,0,2.3,0.4,3.1,1.2c0.8,0.8,1.2,1.8,1.2,3.1c0,1.2-0.4,2.2-1.2,3.1c-0.8,0.8-1.7,1.2-2.9,1.2 c-0.6,0-1.2-0.1-1.7-0.4c-0.5-0.2-1-0.6-1.3-1V66h-1.3v-7.2c0-1.3,0.4-2.4,1.1-3.2C111,54.9,112,54.5,113.3,54.5L113.3,54.5z M113.3,62c0.8,0,1.5-0.3,2.1-0.9c0.5-0.6,0.8-1.3,0.8-2.2s-0.3-1.6-0.8-2.2c-0.5-0.6-1.2-0.9-2.1-0.9c-0.8,0-1.5,0.3-2,0.8 s-0.8,1.3-0.8,2.3s0.3,1.8,0.8,2.3C111.9,61.7,112.5,62,113.3,62L113.3,62z"></path> <path class="st0" d="M127.9,61.9c0.1,0,0.3,0,0.5-0.1V63c-0.3,0.1-0.6,0.1-0.9,0.1c-1,0-1.6-0.5-1.7-1.4c-0.3,0.5-0.8,0.9-1.3,1.1 c-0.5,0.3-1.1,0.4-1.8,0.4c-1.2,0-2.1-0.4-2.9-1.2s-1.1-1.9-1.1-3.1c0-1.2,0.4-2.3,1.1-3.1c0.8-0.8,1.7-1.2,2.9-1.2 c0.7,0,1.3,0.1,1.8,0.4c0.6,0.3,1,0.7,1.3,1.2c0-0.2,0-0.7,0.1-1.4h1.2c-0.1,0.9-0.1,1.6-0.1,2.3c0,0.7,0,1.2,0,1.7v2.1 C127.1,61.5,127.4,61.9,127.9,61.9L127.9,61.9z M122.9,62c0.8,0,1.4-0.3,2-0.8s0.8-1.3,0.8-2.3s-0.3-1.8-0.8-2.3s-1.2-0.8-2-0.8 s-1.5,0.3-2.1,0.9c-0.5,0.5-0.8,1.3-0.8,2.2c0,0.9,0.3,1.7,0.8,2.2C121.4,61.7,122.1,62,122.9,62L122.9,62z"></path> <path class="st0" d="M137.9,61.9c0.1,0,0.3,0,0.5-0.1V63c-0.3,0.1-0.6,0.1-0.9,0.1c-0.8,0-1.3-0.3-1.6-1c-0.5,0.7-1.3,1.1-2.3,1.1 c-0.9,0-1.7-0.3-2.2-1v3.9h-1.3V54.7h1.3v4.9c0,0.7,0.2,1.2,0.6,1.7c0.4,0.4,0.9,0.6,1.5,0.6s1.1-0.2,1.5-0.6 c0.4-0.4,0.6-1,0.6-1.7v-4.9h1.3v6C137,61.5,137.3,61.9,137.9,61.9L137.9,61.9z"></path> <path class="st0" d="M147.8,61.9c0.1,0,0.3,0,0.5-0.1V63c-0.3,0.1-0.6,0.1-0.9,0.1c-0.8,0-1.3-0.3-1.6-1c-0.5,0.7-1.3,1.1-2.3,1.1 c-0.9,0-1.7-0.3-2.2-1v3.9H140V54.7h1.3v4.9c0,0.7,0.2,1.2,0.6,1.7c0.4,0.4,0.9,0.6,1.5,0.6c0.6,0,1.1-0.2,1.5-0.6 c0.4-0.4,0.6-1,0.6-1.7v-4.9h1.3v6C146.9,61.5,147.2,61.9,147.8,61.9L147.8,61.9z"></path> <path class="st0" d="M158.2,61.9c0.1,0,0.3,0,0.5-0.1V63c-0.3,0.1-0.6,0.1-0.9,0.1c-1,0-1.6-0.5-1.7-1.4c-0.3,0.5-0.8,0.9-1.3,1.1 c-0.5,0.3-1.1,0.4-1.8,0.4c-1.2,0-2.1-0.4-2.9-1.2c-0.8-0.8-1.1-1.9-1.1-3.1c0-1.2,0.4-2.3,1.1-3.1c0.8-0.8,1.7-1.2,2.9-1.2 c0.7,0,1.3,0.1,1.8,0.4c0.6,0.3,1,0.7,1.3,1.2c0-0.2,0-0.7,0.1-1.4h1.2c-0.1,0.9-0.1,1.6-0.1,2.3c0,0.7,0,1.2,0,1.7v2.1 C157.4,61.5,157.7,61.9,158.2,61.9L158.2,61.9z M153.2,62c0.8,0,1.4-0.3,2-0.8s0.8-1.3,0.8-2.3s-0.3-1.8-0.8-2.3s-1.2-0.8-2-0.8 s-1.5,0.3-2.1,0.9c-0.5,0.6-0.8,1.3-0.8,2.2s0.3,1.7,0.8,2.2C151.7,61.7,152.3,62,153.2,62L153.2,62z"></path> </g> <g> <path class="st1" d="M75.3,73c0.9,0,1.7,0.3,2.3,0.9s0.9,1.4,0.9,2.3c0,0.4-0.1,0.7-0.2,1.1c-0.2,0.4-0.3,0.7-0.4,0.9 c-0.1,0.2-0.4,0.5-0.7,1l-2.4,3.5h-1.3l2.4-3.5c-0.2,0.1-0.5,0.1-0.8,0.1c-0.9,0-1.6-0.3-2.2-0.9C72.3,77.8,72,77,72,76.2 c0-0.9,0.3-1.7,1-2.3C73.6,73.3,74.4,72.9,75.3,73L75.3,73z M75.3,78.4c0.6,0,1.1-0.2,1.5-0.6c0.4-0.4,0.6-0.9,0.6-1.6 c0-0.6-0.2-1.1-0.6-1.6c-0.4-0.4-0.9-0.6-1.5-0.6c-0.6,0-1.1,0.2-1.5,0.6c-0.4,0.4-0.6,0.9-0.6,1.6c0,0.6,0.2,1.2,0.6,1.6 C74.2,78.2,74.7,78.4,75.3,78.4L75.3,78.4z"></path> <path class="st1" d="M83.1,73.1v9.6H82v-8.2l-2.1,0.7l-0.3-1l3.1-1L83.1,73.1L83.1,73.1z"></path> <path class="st1" d="M86.2,81c0.3,0,0.5,0.1,0.6,0.3c0.2,0.2,0.3,0.4,0.3,0.7s-0.1,0.5-0.3,0.7c-0.2,0.2-0.4,0.3-0.6,0.3 c-0.3,0-0.5-0.1-0.6-0.3c-0.2-0.2-0.3-0.4-0.3-0.7s0.1-0.5,0.3-0.7C85.8,81.1,85.9,81,86.2,81z"></path> <path class="st1" d="M91.6,76.5c0.9,0,1.6,0.3,2.2,0.9s0.9,1.4,0.9,2.2c0,0.9-0.3,1.7-1,2.3c-0.6,0.6-1.4,0.9-2.3,0.9 s-1.7-0.3-2.3-0.9c-0.6-0.6-1-1.4-1-2.3c0-0.1,0-0.1,0-0.2s0-0.1,0-0.2c0-0.1,0-0.1,0-0.2c0-0.1,0-0.1,0-0.2c0-0.1,0-0.2,0.1-0.3 c0-0.1,0-0.1,0.1-0.2c0,0,0-0.1,0.1-0.1c0,0,0-0.1,0.1-0.1c0,0,0-0.1,0.1-0.2c0-0.1,0.1-0.1,0.1-0.2c0,0,0-0.1,0.1-0.1 c0-0.1,0.1-0.2,0.2-0.3c0-0.1,0.1-0.1,0.1-0.2c0,0,0-0.1,0.1-0.1c0,0,0-0.1,0.1-0.1c0-0.1,0.1-0.1,0.1-0.2s0.1-0.1,0.1-0.2 c0-0.1,0.1-0.1,0.1-0.1l2.4-3.5h1.3l-2.4,3.5C91,76.5,91.3,76.5,91.6,76.5L91.6,76.5z M91.4,81.8c0.6,0,1.1-0.2,1.5-0.6 c0.4-0.4,0.6-0.9,0.6-1.6c0-0.6-0.2-1.1-0.6-1.6c-0.4-0.4-0.9-0.6-1.5-0.6s-1.1,0.2-1.5,0.6c-0.4,0.4-0.6,0.9-0.6,1.5 c0,0.6,0.2,1.2,0.6,1.6C90.3,81.6,90.8,81.8,91.4,81.8L91.4,81.8z"></path> <path class="st1" d="M111.7,73.1v9.6h-1.1v-8.2l-2.1,0.7l-0.3-1l3.1-1L111.7,73.1L111.7,73.1z"></path> <path class="st1" d="M117.6,73c1.2,0,2,0.4,2.6,1.3c0.6,0.9,0.9,2.1,0.9,3.5c0,0.9-0.1,1.8-0.3,2.5c-0.2,0.7-0.6,1.3-1.1,1.8 s-1.2,0.7-2,0.7c-1.2,0-2-0.5-2.6-1.4c-0.6-0.9-0.9-2.1-0.9-3.6s0.3-2.6,0.9-3.5C115.6,73.4,116.5,72.9,117.6,73L117.6,73z M117.6,74c-1.6,0-2.3,1.3-2.3,3.8c0,1.2,0.2,2.2,0.6,2.9c0.4,0.7,1,1.1,1.8,1.1s1.4-0.4,1.8-1.1s0.6-1.7,0.6-2.9 C120,75.3,119.2,74,117.6,74L117.6,74z"></path> <path class="st1" d="M125.9,76.7c0.9,0,1.7,0.3,2.3,0.8c0.6,0.5,1,1.2,1,2.2s-0.3,1.7-1,2.3c-0.7,0.6-1.5,0.9-2.4,0.9 c-0.8,0-1.4-0.2-2-0.6c-0.5-0.4-1-0.8-1.3-1.4l0.8-0.6c0.7,1,1.5,1.5,2.5,1.5c0.6,0,1.2-0.2,1.6-0.6s0.6-0.9,0.6-1.6 c0-0.6-0.2-1.1-0.6-1.5c-0.4-0.3-1-0.5-1.8-0.5h-2.2V73h4.9v1h-3.8v2.7c0.2,0,0.4-0.1,0.7-0.1C125.5,76.7,125.7,76.7,125.9,76.7 L125.9,76.7z"></path> <path class="st1" d="M131.3,81c0.3,0,0.5,0.1,0.6,0.3c0.2,0.2,0.3,0.4,0.3,0.7s-0.1,0.5-0.3,0.7c-0.2,0.2-0.4,0.3-0.6,0.3 c-0.3,0-0.5-0.1-0.6-0.3c-0.2-0.2-0.3-0.4-0.3-0.7s0.1-0.5,0.3-0.7C130.9,81.1,131,81,131.3,81z"></path> <path class="st1" d="M137.8,77.7c1.5,0.6,2.3,1.4,2.3,2.6c0,0.8-0.3,1.4-0.9,1.9c-0.6,0.5-1.4,0.7-2.4,0.7s-1.8-0.2-2.5-0.7 c-0.6-0.5-0.9-1.1-0.9-1.9c0-1.2,0.8-2,2.3-2.6c-1.2-0.6-1.8-1.4-1.8-2.3c0-0.7,0.3-1.3,0.8-1.7c0.6-0.4,1.3-0.6,2.1-0.6 s1.5,0.2,2.1,0.6c0.6,0.4,0.8,1,0.8,1.7C139.6,76.3,139,77.1,137.8,77.7L137.8,77.7z M136.7,81.9c0.7,0,1.3-0.2,1.6-0.5 c0.4-0.3,0.6-0.7,0.6-1.2s-0.2-0.9-0.6-1.2c-0.4-0.3-1-0.6-1.7-0.8c-0.7,0.3-1.3,0.5-1.7,0.8s-0.6,0.7-0.6,1.2s0.2,0.9,0.6,1.2 C135.4,81.7,136,81.9,136.7,81.9L136.7,81.9z M134.9,75.4c0,0.4,0.1,0.8,0.4,1c0.3,0.3,0.7,0.5,1.3,0.8c0.6-0.3,1.1-0.5,1.3-0.8 c0.3-0.3,0.4-0.6,0.4-1c0-0.5-0.2-0.8-0.5-1.1c-0.3-0.3-0.8-0.4-1.3-0.4s-1,0.1-1.3,0.4C135.1,74.6,134.9,74.9,134.9,75.4 L134.9,75.4z"></path> </g> <g> <path class="st0" d="M95.3,149.5c-3.4-0.5-6.7-1.6-9.7-3.3c-3.1-1.8-5.8-3.9-8.1-6.5s-4.1-5.5-5.5-8.6c-1.4-3.1-2-6.4-2-9.7 c0-4.5,0.7-8.8,2.2-12.7c1.4-3.9,3.5-7.3,6.2-10.2c2.7-2.9,5.9-5.1,9.6-6.8c3.7-1.7,7.9-2.5,12.5-2.5c4.1,0,8,0.8,11.7,2.5 c3.7,1.6,6.9,3.9,9.6,6.7s4.9,6.1,6.5,9.9c1.6,3.7,2.3,7.8,2.3,12.1c0,4.1-0.9,8-2.6,11.6c-1.7,3.6-4,6.7-6.8,9.4s-6,4.8-9.6,6.4 c-3.6,1.6-7.4,2.3-11.3,2.3C98.4,150,96.8,149.8,95.3,149.5z M121.8,101.8c-2.8-3.6-6.1-6.2-9.8-7.8c-3.7-1.6-7.7-2.4-11.8-2.4 c-4.1,0-8.1,0.8-11.8,2.4c-3.7,1.6-7,4.2-9.8,7.8 M78.2,137c2.2,2.9,5.3,5.5,9.1,7.6c3.9,2.1,8.2,3.2,13,3.2c2.2,0,4.4-0.3,6.7-1 c2.3-0.7,4.5-1.5,6.5-2.6c2-1,3.8-2.2,5.3-3.5c1.6-1.3,2.7-2.5,3.4-3.7H78.2z"></path> </g> <g> <rect x="75.7" y="117" class="st2" width="49.1" height="1"></rect> </g> <g> <rect x="75.7" y="111.3" class="st2" width="49.1" height="1"></rect> </g> <g> <rect x="75.7" y="126.3" class="st2" width="49.1" height="1"></rect> </g> <g> <rect x="75.7" y="120.1" class="st2" width="49.1" height="1"></rect> </g> <g> <rect x="75.7" y="123.2" class="st2" width="49.1" height="1"></rect> </g> <g> <path class="st1" d="M104.7,78.7h-4.8V78h4.8V78.7z"></path> </g> <g> <rect x="110.6" y="98.5" class="st1" width="1.4" height="41.3"></rect> </g> </g> </svg> 