<svg xmlns="http://www.w3.org/2000/svg" id="svg64" width="511.757" height="326.251" version="1.1"><defs id="defs4"><style id="style2">.cls-1{fill:#0375e5}</style></defs><g id="g3925"><g id="g3681" transform="translate(-210.619 7.874)"><g id="g4483" transform="translate(128.288 -138.031)"><g id="g4667" transform="translate(-337.706 253.78)"><g id="g4771"><g id="g4875" transform="translate(-231.203 15.275)"><g id="g4880" transform="translate(17.846 -68.479)"><g id="g5141"><g id="g5269"><g id="g5214" transform="matrix(1 0 0 1.02609 0 1.837)"><g id="g5160" transform="matrix(.9504 0 0 .9514 33.315 -3.42)"><g id="g5369" transform="matrix(1.0168 0 0 1.0244 -10.607 1.718)"><g id="g5274" transform="matrix(.9542 0 0 .94315 44.692 -.414)"><g id="g5470"><g id="g1001" transform="matrix(1.048 0 0 1.07239 614.864 -74.224)"><g id="g2133" style="font-weight:800;font-size:68.6834px;line-height:1.25;font-family:&quot;Albert Sans&quot;;-inkscape-font-specification:&quot;Albert Sans Ultra-Bold&quot;;word-spacing:0;fill:#10266b;fill-opacity:1;stroke-width:1.71709" transform="matrix(.97598 0 0 1.01452 .504 3.905)"><g id="g1025"><g id="text1937" aria-label="TERUS MENGUDARA UNTUK INDONESIA" style="font-weight:800;font-size:40.1327px;line-height:1.25;font-family:&quot;Albert Sans&quot;;-inkscape-font-specification:&quot;Albert Sans Ultra-Bold&quot;;word-spacing:0;stroke-width:1.00332" transform="matrix(.96915 0 0 1.0421 -.517 -3.849)"><g id="g8533"><g id="g8624"><g id="g1194"><g id="text1536" aria-label="JARINGAN BERITA NASIONAL" style="font-weight:700;font-size:58.7338px;line-height:1.25;font-family:&quot;Albert Sans&quot;;-inkscape-font-specification:&quot;Albert Sans Bold&quot;;word-spacing:0;stroke-width:1.46836" transform="matrix(1.0434 0 0 .95841 0 -.152)"><g id="g1936"><g id="g2105"><g id="g1308" transform="scale(1.01326 .98692)"><g id="text3190-8" aria-label="PRO" style="font-weight:700;font-size:87.6668px;line-height:1.25;font-family:&quot;Warner Bros. Bold Cond&quot;;-inkscape-font-specification:&quot;Warner Bros. Bold Cond Bold&quot;;word-spacing:0;fill:#e57521;fill-opacity:1;stroke-width:2.19167" transform="matrix(.41182 0 0 .42994 352.47 29.659)"><g id="g8989" transform="matrix(1.00019 0 0 1 .163 0)"><g id="g8738" style="fill:#d40000" transform="matrix(4.58898 0 0 4.48306 -551.986 -177.046)"><g id="g4096" style="fill:#d40000"><g id="g4619" transform="translate(-.204)"><g id="g4560"><g id="g4389" style="fill:#ea0000;fill-opacity:1"><g id="g2780"><g id="g2755"><g id="g8698" style="font-weight:800;font-size:40.1327px;line-height:1.25;font-family:&quot;Albert Sans&quot;;-inkscape-font-specification:&quot;Albert Sans Ultra-Bold&quot;;word-spacing:0;fill:#10266b;fill-opacity:1;stroke-width:1.00332" transform="matrix(.5004 0 0 .54851 349.425 26.721)"><g id="g8880" style="fill:#10266b;fill-opacity:1" transform="matrix(.9892 0 0 1 0 3.198)"><g id="g1732" transform="translate(.402)"><g id="g1899" transform="translate(.064)"><g id="g2716"><g id="g2675" style="font-weight:700;font-size:87.6668px;line-height:1.25;font-family:&quot;Warner Bros. Bold Cond&quot;;-inkscape-font-specification:&quot;Warner Bros. Bold Cond Bold&quot;;word-spacing:0;fill:#e57521;fill-opacity:1;stroke-width:2.19167" transform="matrix(.77982 0 0 .68183 -902.1 -7.406)"><g id="g2712"><g id="g2787" transform="translate(0 -.569)"><g id="g2749" transform="translate(-1.6)"><g id="g1995" transform="translate(-2.1)"><g id="text2484" aria-label="SEKALI DI UDARA , TETAP DI UDARA" style="font-weight:700;font-size:39.8684px;line-height:1.25;font-family:&quot;Warner Bros Sans&quot;;-inkscape-font-specification:&quot;Warner Bros Sans Bold&quot;;word-spacing:0;fill:#022567;fill-opacity:1;stroke-width:.99671" transform="matrix(.99671 0 0 1.0033 -1.06 0)"><g id="g5584" transform="translate(84.06)"><g id="Layer_2" data-name="Layer 2" transform="matrix(1.0033 0 0 .99671 1.064 0)"><g id="Layer_1-2" data-name="Layer 1"><g id="g3511"><path id="rect6" d="M0 82.57h74.89v186.17H0Z" class="cls-1"/><path id="path8" d="M157.47 82.56v76.29H81.19a76.29 76.29 0 0 1 76.28-76.29z" class="cls-1"/><path id="rect10" d="M187.32 82.57h74.89v186.17h-74.89z" class="cls-1"/><path id="path12" d="M449 82.57a74.88 74.88 0 0 0-74.89 74.88v111.29H449Z" class="cls-1"/><path id="rect14" d="M374.14 0h74.89v74.89h-74.89z" class="cls-1"/><path id="path16" d="M354 120.71a42 42 0 1 1-42-41.95 41.8 41.8 0 0 1 42 41.95z" class="cls-1"/></g></g></g></g></g></g></g></g></g></g></g></g></g></g></g></g></g></g></g></g></g></g></g></g></g></g></g></g></g></g></g></g></g></g></g></g></g></g></g></g></g></g></g></g></g></g></g></g></g><g id="g1098"><g id="g3860"><g id="g1373" style="fill:#ff1515;fill-opacity:1" transform="matrix(.9221 0 0 .94319 -566.576 70.01)"><g id="text2060" aria-label="3" style="font-weight:800;font-size:406.268px;line-height:1.25;font-family:Gilroy;-inkscape-font-specification:&quot;Gilroy Ultra-Bold&quot;;word-spacing:0;fill:#ff1515;fill-opacity:1;stroke-width:10.1567" transform="matrix(.96582 0 0 .95885 466.853 29.576)"><path id="path2472" d="M716.075 10.694 666.54 74.405c18.559 6.62 33.296 17.1 44.213 31.442 11.19 14.066 16.785 30.615 16.785 49.645 0 30.339-10.098 54.058-30.294 71.158-20.197 17.1-44.896 25.65-74.1 25.65-23.198 0-43.667-5.24-61.407-15.72-17.74-10.757-30.704-26.202-38.891-46.336l56.495-33.097c7.096 20.41 21.697 30.615 43.804 30.615 16.102 1.103 27.565-4 34.388-15.308 6.823-11.308 6.823-22.616 0-33.924s-18.286-16.41-34.388-15.307h-13.51l-24.972-37.648C625.011 37.682 657.896-.893 692.918-43.043l23.157-.045z" style="fill:#ff1515;fill-opacity:1;stroke-width:10.2886"/></g><path id="path38-8-0" d="M980.657 50.575v-61.93h122.651c-4.582 33.582-30.106 61.927-67.242 61.927z" style="font-weight:800;font-size:40.1327px;line-height:1.25;font-family:&quot;Albert Sans&quot;;-inkscape-font-specification:&quot;Albert Sans Ultra-Bold&quot;;word-spacing:0;fill:#ff1515;fill-opacity:1;stroke-width:44.2052"/></g></g><g id="g1153" style="font-weight:700;font-size:87.6668px;line-height:1.25;font-family:&quot;Warner Bros. Bold Cond&quot;;-inkscape-font-specification:&quot;Warner Bros. Bold Cond Bold&quot;;word-spacing:0;fill:#ff1515;fill-opacity:1;stroke-width:2.19167" transform="matrix(.1308 0 0 -.1342 -253.384 252.255)"><g id="g4941" style="fill:#ff1515;fill-opacity:1"><g id="g5254-0-0" style="font-weight:700;font-size:87.6668px;line-height:1.25;font-family:&quot;Warner Bros. Bold Cond&quot;;-inkscape-font-specification:&quot;Warner Bros. Bold Cond Bold&quot;;word-spacing:0;fill:#ff1515;fill-opacity:1;stroke-width:2.19167" transform="matrix(5.76716 0 0 -5.96843 990.866 2255.129)"><path id="path4995-6-4" d="M623.7 95.617q1.052-.526 3.682-1.753 2.718-1.227 5.523-2.98 2.805-1.842 4.91-4.121 2.19-2.28 2.19-4.822 0-3.068-2.19-4.909-2.105-1.929-7.277-1.929H623.7Zm4.033-31.384q5.172 0 9.643.876 4.47.79 7.715 2.718 3.33 1.841 5.26 4.997 1.928 3.068 1.928 7.715 0 4.12-1.665 7.451-1.578 3.332-4.208 6.05-2.63 2.717-5.874 4.821-3.244 2.104-6.4 3.77-3.156 1.665-5.961 2.98-2.805 1.228-4.471 2.28v17.708h-12.273V64.233Z" style="fill:#ff1515;fill-opacity:1"/></g><g id="g902" style="fill:#ff1515;fill-opacity:1" transform="matrix(1.04708 0 0 1.0844 2505.61 1067.204)"><path id="path36" d="M2255.94 558.211v125.437h31.02c36.53 0 53.29-15.617 53.29-38.359 0-48.129-84.31-87.078-84.31-87.078zm149.35 92.641c0 64.179-58.27 90.609-133.47 90.609h-80.94V404.219h65.06v80.742c10.25 7.617 29.66 19.687 48.24 32.43l55.89-113.172h68.42l-73.79 152.742c28.02 26.129 50.59 57.66 50.59 93.891" style="fill:#ff1515;fill-opacity:1;fill-rule:nonzero;stroke:none"/><path id="path46" d="M2569.07 688.418c48.21 0 62.31-58.527 62.31-115.629 0-57.051-14.1-115.621-62.31-115.621-48.16 0-62.26 58.57-62.26 115.621 0 57.102 14.1 115.629 62.26 115.629zm0-291.469c86.72 0 127.32 82.071 127.32 175.84 0 93.672-40.6 175.891-127.32 175.891s-127.32-82.219-127.32-175.891c0-93.769 40.6-175.84 127.32-175.84" style="fill:#ff1515;fill-opacity:1;fill-rule:nonzero;stroke:none"/></g></g></g></g></svg>